<svg width="26" height="27" viewBox="0 0 26 27" fill="none" xmlns="http://www.w3.org/2000/svg">
<path d="M1.51588 6.1567C2.13133 8.43908 3.3862 10.7894 5.43791 12.0195C5.67222 12.1591 5.94401 12.2777 6.22546 12.3843C6.93155 11.6008 7.69982 10.993 8.56404 10.529C9.30726 10.1323 10.0664 9.8465 10.8343 9.64677C10.6475 9.47155 10.4485 9.30783 10.2372 9.15559C9.39676 8.54997 8.47289 7.99066 7.5794 7.40392C8.44521 7.77736 9.46542 8.01665 10.2822 8.45459C10.7913 8.72911 11.248 9.07293 11.6635 9.46383C13.1096 9.19192 14.5829 9.17302 16.0457 9.20829C15.1582 7.10414 12.8945 5.1918 11.1211 4.21901C9.26919 3.2031 7.06514 2.79377 4.91942 2.25506C3.60478 1.92576 2.22513 1.21887 1.24684 0.484812C1.02442 0.317728 0.735707 0.501481 0.780373 0.780817C1.06244 2.52507 1.05577 4.45309 1.51588 6.1567Z" fill="white"/>
<path d="M24.5672 9.20814C21.9196 10.1898 19.0793 9.94873 16.2741 9.86905C14.9044 9.83128 13.5423 9.83169 12.2176 10.0336C11.9305 10.0771 11.6419 10.1311 11.3569 10.1961C10.5107 10.3872 9.67927 10.6785 8.87257 11.1111C8.11484 11.5163 7.4683 12.0329 6.90146 12.6218C5.99793 13.5625 5.3001 14.6944 4.68903 15.8864C3.57536 18.0502 2.86694 20.418 2.59134 22.8347C2.47968 23.815 2.34945 24.8323 2.45404 25.8198C2.47835 26.0379 2.49186 26.3127 2.63305 26.492C2.81647 26.7276 3.22831 26.5722 3.18552 26.2613C2.87007 24.0671 3.60782 21.6612 4.75095 19.7719C6.06456 17.5996 8.15738 16.4959 10.5936 15.99C11.2409 15.8551 11.8972 15.7507 12.5623 15.6581C12.576 15.6548 12.589 15.6566 12.602 15.6585C12.7292 15.6768 12.7569 15.8715 12.6159 15.9122C11.8142 16.1442 11.0172 16.3795 10.2525 16.6485C6.50749 17.9654 4.37831 21.9786 5.68417 22.1661C5.79063 22.1814 5.91933 22.1708 6.07069 22.1316C8.205 21.5876 10.5998 21.9236 12.8732 21.8315C13.6725 21.8006 14.4586 21.7148 15.2124 21.521C18.2063 20.7481 20.5573 18.7329 22.1575 16.1329C23.3504 14.1924 24.0492 11.7994 25.0356 9.74709C25.1634 9.48458 25.0026 9.22039 24.7638 9.18608C24.7045 9.17487 24.6373 9.18115 24.5672 9.20814Z" fill="white"/>
</svg>
